<mxfile host="app.diagrams.net" modified="2024-03-14T12:42:20.697Z" agent="Mozilla/5.0 (Macintosh; Intel Mac OS X 10_15_7) AppleWebKit/537.36 (KHTML, like Gecko) Chrome/117.0.0.0 Safari/537.36" version="24.0.6" etag="UbXBv4eroxHsDQ754TPM" type="github">
  <diagram name="Page-1" id="LqxMqkK4l5NuL3ELuPe6">
    <mxGraphModel>
      <root>
        <mxCell id="0" />
        <mxCell id="1" parent="0" />
      </root>
    </mxGraphModel>
  </diagram>
</mxfile>
